<svg width="44" height="44" fill="none" xmlns="http://www.w3.org/2000/svg"><path d="M23.444 2.53a3.533 3.533 0 00-2.164.302 2.26 2.26 0 00-2.736.264l-2.402 2.25v-.197a3.666 3.666 0 00-3.666-3.665 2.2 2.2 0 00-2.2 2.2v7.18L8.483 12.81a2.915 2.915 0 00-.776 2.027 48.214 48.214 0 00.565 7.634.704.704 0 00.069.166l-1.197 3.365a2.9 2.9 0 001.11 3.398l.419.284a2.939 2.939 0 001.111 3.373l11.87 8.138c.2.137.32.363.32.605a2.2 2.2 0 002.199 2.2h10.655a2.183 2.183 0 001.717-.828 2.206 2.206 0 00.416-1.893l-1.07-3.959a17.433 17.433 0 01-.328-5.27c.604-7.662-4.533-13.197-5.836-14.16-2.396-1.766-4.184-3.608-4.905-5.053-1.082-2.168-.353-3.652.352-5.086.59-1.203 1.202-2.446.335-3.75a3.226 3.226 0 00-2.064-1.471zm-10.968.42a2.2 2.2 0 012.2 2.2v1.568l-2.933 2.745v-5.78a.732.732 0 01.733-.733zM9.173 14.817a1.455 1.455 0 01.387-1.013l1.935-2.101a.628.628 0 00.05-.048l4.305-4.029a.725.725 0 00.114-.107l3.601-3.372a.74.74 0 011.031 0l.05-.05a.78.78 0 00.057.058l-.046.059a2.2 2.2 0 01-.05 3.035l-2.883 2.769-4.06 3.656a1.425 1.425 0 00-.385 1.042 3.665 3.665 0 00-2.978 2.4l-.92 2.587c-.148-1.802-.195-3.842-.208-4.886zm5.566-.137l2.118-1.906c-.027.636-.004 1.274.07 1.906H14.74zM8.522 26.503l3.162-8.896a2.207 2.207 0 012.087-1.46h6.291c.152 0 .3.048.424.136l3.795 2.69a.56.56 0 01.164.744c-.026.043-.06.085-.09.127l-1.191-.852a3.638 3.638 0 00-2.126-.683h-5.77a3.666 3.666 0 00-3.451 2.446l-2.64 7.5-.095-.064a1.437 1.437 0 01-.56-1.688zM23.86 7.114c-.74 1.506-1.754 3.57-.348 6.388 1.124 2.253 3.832 4.462 5.347 5.577.974.717 5.798 5.834 5.244 12.864a18.919 18.919 0 00.366 5.74l1.07 3.96a.734.734 0 01-.712.897H24.168a.733.733 0 01-.733-.733 2.2 2.2 0 00-.953-1.815l-11.87-8.138a1.47 1.47 0 01-.553-1.7l3.14-8.915a2.2 2.2 0 012.068-1.466h5.77c.457 0 .903.143 1.274.41l3.385 2.423a.569.569 0 01.154.751 2.189 2.189 0 01-3.095.698l-1.467-.978a2.178 2.178 0 00-1.22-.372H17.81a2.18 2.18 0 00-2.09 1.52 14.61 14.61 0 01-.175.499c-.528 1.459-1.76 4.872 1.035 5.993a.734.734 0 10.546-1.36c-1.23-.493-.97-2.01-.202-4.134.078-.214.147-.402.194-.555a.72.72 0 01.693-.496h2.257c.144 0 .284.043.404.123l1.466.98a3.657 3.657 0 005.17-1.165 2.044 2.044 0 00-.561-2.697l-1.002-.72c.053-.074.111-.147.156-.22a2.02 2.02 0 00-.57-2.692l-3.794-2.694a2.216 2.216 0 00-1.275-.407h-1.658a10.38 10.38 0 01.109-3.412l3.124-2.97a3.666 3.666 0 00.648-4.29 1.699 1.699 0 012.005.814c.364.548.16 1.092-.43 2.292z" fill="#fff"/><path d="M20.744 30.81a.735.735 0 00-.464 1.393c1.692.567 6.085 2.602 6.085 5.17a.733.733 0 001.466 0c-.002-4.151-6.797-6.469-7.087-6.563zm4.952-2.683a.733.733 0 10-1.167.888c1.118 1.466 2.98 3.221 5.491 3.221a.733.733 0 100-1.466c-1.911 0-3.404-1.438-4.324-2.643zM26.198.246L25.5.979a.733.733 0 101.061 1.01l.699-.733a.733.733 0 10-1.062-1.01zm3.471 3.291a.732.732 0 00-.904-.508l-.954.268a.733.733 0 10.398 1.413l.954-.268a.733.733 0 00.506-.905zm-2.042 2.982a.733.733 0 00-.397 1.411l.953.269a.733.733 0 10.397-1.412l-.953-.268z" fill="#fff"/></svg>