<svg width="16" height="16" fill="none" xmlns="http://www.w3.org/2000/svg"><g clip-path="url(#clip0_183_1000)" fill="#fff"><path d="M15.997 6.117a.25.25 0 00-.011-.055.274.274 0 00-.015-.045.244.244 0 00-.027-.041.251.251 0 00-.035-.042c-.005-.003-.007-.008-.011-.012L13.333 3.93V1.866a.8.8 0 00-.8-.8h-2.89L8.486.167a.79.79 0 00-.973 0l-1.157.899h-2.89a.8.8 0 00-.8.8V3.93L.102 5.922c-.004.004-.006.009-.01.012a.25.25 0 00-.036.042.238.238 0 00-.027.04.263.263 0 00-.015.046.253.253 0 00-.01.054c0 .005-.004.01-.004.016V15.2c0 .17.055.334.157.47.001.003.001.006.003.008l.009.007c.15.197.383.314.63.315H15.2a.796.796 0 00.633-.316l.007-.006.004-.008A.791.791 0 0016 15.2V6.133c0-.006-.003-.01-.003-.016zM7.84.588a.256.256 0 01.318 0l.615.478H7.226L7.84.588zM.866 15.466L7.84 10.05a.256.256 0 01.318 0l6.975 5.416H.866zm14.6-.415l-6.98-5.422a.791.791 0 00-.973 0l-6.98 5.422V6.539l4.37 3.393a.267.267 0 00.327-.421L.79 6.063l1.876-1.458v2.06a.267.267 0 00.533 0v-4.8c0-.147.12-.266.267-.266h9.067c.148 0 .267.12.267.267v4.8a.267.267 0 00.533 0v-2.06l1.876 1.457-4.447 3.454a.267.267 0 10.327.421l4.378-3.4v8.513z"/><path d="M11.201 6.4V5.333a3.2 3.2 0 10-3.2 3.2.267.267 0 100-.533 2.667 2.667 0 112.667-2.667V6.4a.533.533 0 01-1.067 0V5.333a.267.267 0 10-.533 0A1.067 1.067 0 118 4.266a.267.267 0 100-.533 1.6 1.6 0 101.078 2.779A1.064 1.064 0 0011.2 6.4z"/></g><defs><clipPath id="clip0_183_1000"><path fill="#fff" d="M0 0h16v16H0z"/></clipPath></defs></svg>