<svg width="18" height="11" fill="none" xmlns="http://www.w3.org/2000/svg"><path fill-rule="evenodd" clip-rule="evenodd" d="M15.377 1.476c-.673.7-1.332 1.384-1.324 1.384C16.23 2.86 18 4.64 18 6.838c0 2.197-1.765 3.978-3.941 3.978-1.919 0-3.917-1.695-5.059-2.856-1.144 1.159-3.143 2.856-5.059 2.856C1.765 10.816 0 9.036 0 6.838 0 4.641 1.765 2.86 3.937 2.86a116 116 0 00-1.458-1.524A106.874 106.874 0 011.2 0c.459.008 2.157 0 2.157 0l5.639 5.905L14.634 0s1.698.008 2.156 0c.01 0-.709.746-1.412 1.476zM2.275 8.626a2.53 2.53 0 001.788.74c1.866 0 3.856-2.487 3.856-2.487S5.846 4.31 4.063 4.31a2.53 2.53 0 00-2.529 2.528c0 .67.267 1.313.74 1.788zm7.8-1.747s1.99 2.487 3.857 2.487a2.53 2.53 0 002.529-2.528 2.527 2.527 0 00-2.53-2.528c-1.782 0-3.855 2.57-3.855 2.57z" fill="#fff" fill-opacity=".5"/><path d="M8.993 9.196l.887.887-.917.917-.887-.887.917-.917z" fill="#fff" fill-opacity=".5"/></svg>