<svg width="16" height="16" fill="none" xmlns="http://www.w3.org/2000/svg"><path d="M11.313 0H4.686A4.693 4.693 0 000 4.688v6.625A4.693 4.693 0 004.688 16h6.625A4.693 4.693 0 0016 11.312V4.689A4.693 4.693 0 0011.312 0zm4.062 11.313a4.067 4.067 0 01-4.063 4.062H4.689a4.067 4.067 0 01-4.063-4.063V4.689A4.067 4.067 0 014.688.625h6.625a4.067 4.067 0 014.062 4.063v6.625z" fill="#fff"/><path d="M11.313 1.375H4.686a3.316 3.316 0 00-3.312 3.313v6.625a3.316 3.316 0 003.313 3.312h1.906a.312.312 0 100-.625H4.687A2.69 2.69 0 012 11.312V4.689A2.69 2.69 0 014.688 2h6.625A2.69 2.69 0 0114 4.688v6.625A2.69 2.69 0 0111.312 14H9.428a.312.312 0 100 .625h1.886a3.316 3.316 0 003.312-3.313V4.689a3.316 3.316 0 00-3.313-3.313z" fill="#fff"/><path d="M8.22 14.092a.315.315 0 00-.44 0 .315.315 0 000 .441.315.315 0 00.44 0 .315.315 0 000-.441zM5.495 4.865a.313.313 0 00-.442-.014l-.014.013a.312.312 0 10.43.455l.011-.012a.313.313 0 00.015-.442z" fill="#fff"/><path d="M8 3.688c-.686 0-1.37.165-1.976.478a.313.313 0 00.287.555A3.692 3.692 0 0111.687 8 3.692 3.692 0 018 11.688a3.692 3.692 0 01-3.209-5.506.313.313 0 00-.543-.309A4.314 4.314 0 008 12.313 4.317 4.317 0 0012.313 8 4.317 4.317 0 008 3.687z" fill="#fff"/><path d="M8 5.188A2.816 2.816 0 005.187 8 2.816 2.816 0 008 10.813 2.816 2.816 0 0010.813 8 2.816 2.816 0 008 5.187zm0 5A2.19 2.19 0 015.812 8 2.19 2.19 0 018 5.812 2.19 2.19 0 0110.188 8 2.19 2.19 0 018 10.188zm4.102-7.478a1.189 1.189 0 000 2.375c.654 0 1.187-.532 1.187-1.187 0-.654-.533-1.187-1.187-1.187zm0 1.75a.563.563 0 110-1.125.563.563 0 010 1.126z" fill="#fff"/></svg>