<svg width="44" height="44" fill="none" xmlns="http://www.w3.org/2000/svg"><g clip-path="url(#clip0_2_766)" fill="#fff"><path d="M35.025 16.029a.844.844 0 00.764-.008c.685-.357 2.922-1.662 2.947-3.456.037-1.076-.94-2.182-2.15-2.162-.424 0-.833.121-1.183.348a2.137 2.137 0 00-1.171-.348c-1.118-.012-2.14.97-2.165 2.14-.038 1.862 2.254 3.139 2.958 3.486zm-.8-4.337h.006c.22 0 .43.084.593.237a.846.846 0 001.155 0 .888.888 0 01.607-.237c.346.005.839.28.861.854-.012.85-1.215 1.75-2.053 2.223-.848-.456-2.056-1.335-2.039-2.2.01-.464.416-.874.87-.877zM8.2 16.029a.845.845 0 00.765-.008c.685-.357 2.921-1.662 2.947-3.456.037-1.076-.94-2.182-2.15-2.162-.424 0-.833.121-1.183.348a2.138 2.138 0 00-1.187-.348c-1.161.008-2.126.968-2.15 2.14-.037 1.862 2.255 3.139 2.959 3.486zm-.798-4.337h.006c.219 0 .43.084.591.237a.846.846 0 001.156 0 .887.887 0 01.607-.237c.345.005.839.28.861.854-.012.85-1.215 1.75-2.054 2.223-.847-.456-2.055-1.335-2.038-2.2.01-.465.416-.874.87-.877z"/><path d="M4.127 18.018h2.074c.074 0 .143.03.196.081L7.8 19.5a1.1 1.1 0 00.781.322 1.1 1.1 0 00.775-.316l1.431-1.408a.275.275 0 01.194-.08h2.05a2.306 2.306 0 002.303-2.304v-2.416c.313.113.65.175 1 .175h2.78c.212 0 .414.091.554.25l1.405 1.596c.243.277.594.436.963.438h.005c.366 0 .717-.156.961-.43l1.44-1.608a.739.739 0 01.55-.246h2.747c.317 0 .622-.05.909-.144v2.386a2.306 2.306 0 002.303 2.303h2.074a.28.28 0 01.196.081l1.404 1.401a1.105 1.105 0 001.556.006l1.43-1.408a.276.276 0 01.195-.08h2.049a2.306 2.306 0 002.304-2.304v-5.98a2.306 2.306 0 00-2.304-2.304h-9.167V2.949A2.952 2.952 0 0027.74 0h-5.25a.644.644 0 100 1.29h5.25c.915 0 1.66.744 1.66 1.659v7.575c0 .915-.745 1.66-1.66 1.66h-2.748a2.03 2.03 0 00-1.51.675l-1.44 1.609-1.406-1.596a2.028 2.028 0 00-1.521-.688h-2.78c-.915 0-1.66-.745-1.66-1.66V2.949c0-.915.745-1.66 1.66-1.66h3.146a.644.644 0 100-1.289h-3.145a2.952 2.952 0 00-2.95 2.949V7.43H4.128a2.306 2.306 0 00-2.304 2.304v5.98a2.306 2.306 0 002.304 2.304zM39.855 8.72c.56 0 1.015.455 1.015 1.015v5.98c0 .56-.456 1.016-1.015 1.016h-2.049c-.414 0-.804.16-1.098.45l-1.302 1.28-1.275-1.273a1.556 1.556 0 00-1.106-.458H30.95c-.56 0-1.015-.455-1.015-1.014v-3.227c.467-.522.752-1.21.752-1.964V8.719h9.167zM3.112 9.734c0-.56.455-1.015 1.015-1.015h9.259v1.805c0 .703.247 1.349.66 1.856v3.335c0 .56-.456 1.014-1.016 1.014h-2.048c-.414 0-.804.16-1.099.45l-1.301 1.28-1.275-1.272a1.556 1.556 0 00-1.106-.458H4.127c-.56 0-1.015-.455-1.015-1.014V9.733z"/><path d="M17.266 6.079c-.053 2.654 3.314 4.523 4.346 5.033a.952.952 0 00.862-.01c1.008-.525 4.3-2.438 4.336-5 .055-1.507-1.32-3.001-2.954-2.969a2.99 2.99 0 00-1.817.611 2.95 2.95 0 00-1.816-.61c-1.598.01-2.924 1.332-2.957 2.945zm2.966-1.657h.012c.425 0 .83.163 1.144.458a.954.954 0 001.301 0 1.707 1.707 0 011.167-.458c.791-.013 1.687.703 1.665 1.66-.02 1.428-1.86 2.916-3.491 3.797-1.656-.848-3.505-2.313-3.475-3.774.018-.906.786-1.676 1.677-1.683zM42.443 39.04v-9.388a7.016 7.016 0 00-7.008-7.008c-1.11 0-2.216.267-3.198.771a.644.644 0 10.59 1.147 5.725 5.725 0 018.328 5.09v8.251c-.019-.007-.035-.016-.053-.023l-3.246-1.338v-1.26c1.24-1.238 2.194-3.225 2.194-5.052 0-2.353-1.048-4.202-2.802-4.946a.646.646 0 00-.5-.001.67.67 0 00-.382.457 4.65 4.65 0 01-3.561 3.544l-1.476.316c-.247.048-.506.345-.508.76.045 1.809.983 3.726 2.194 4.93v1.252l-2.564 1.057a3.211 3.211 0 00-.734-.663v-7.284c0-1.181.357-2.315 1.033-3.279a.644.644 0 10-1.056-.74 6.964 6.964 0 00-1.266 4.02v6.686l-3.527-1.453v-2.449c1.615-1.308 2.571-3.66 2.75-5.976.844-.606 1.338-1.832 1.61-2.814a2.39 2.39 0 00-.313-1.969 2.363 2.363 0 00-.971-.833 2.44 2.44 0 00-2.193-2.875 2.462 2.462 0 00-1.267.228 2.834 2.834 0 00-3.883-1.175 2.426 2.426 0 00-1.513-.523 2.436 2.436 0 00-2.33 1.69 3.205 3.205 0 00-2.611 3.165c0 .72.238 1.41.674 1.973-.011.362-.01 1.03.11 1.67a3.067 3.067 0 001.505 2.112c.057.42.139.84.246 1.248.076.243.39.568.787.46a.644.644 0 00.46-.787 9.277 9.277 0 01-.247-1.338c-.029-.25.065-.36.63-.635.382-.183.87-.416 1.174-.897 1.284.143 2.719-.572 3.416-1.668.44.286 1.104.543 1.793.474.33.702.793 1.022 1.15 1.268.384.265.502.347.505.833-.134 3.013-1.8 6.123-4.364 6.123-1.417 0-2.369-.9-2.917-1.656a.644.644 0 10-1.043.758c.328.452.69.836 1.08 1.151v2.442l-4.272 1.76a3.223 3.223 0 00-1.289.965l-2.593-1.069V34.56c.908-.806 1.684-1.985 2.092-3.278a.643.643 0 00.452-.29c.67-1.046 1.957-4.22-.107-6.31-.81-.821-1.952-.994-2.893-.813a2.014 2.014 0 00-.135-.249c-.87-1.36-3.12-1.55-5.122-.434a.644.644 0 10.628 1.126c1.502-.837 2.975-.675 3.408.003.18.28.192.712.032 1.184-.237.7-.916 1.603-2.11 2.038a7.568 7.568 0 00-2.913 1.907c-.243-.85-.382-2.065-.05-3.169a.644.644 0 10-1.234-.372c-.594 1.973-.012 4.235.57 5.142.104.164.276.27.466.293.414 1.266 1.18 2.422 2.075 3.217v1.987c-.059.026-3.22 1.323-3.282 1.354a2.785 2.785 0 00-1.694 2.568v2.031c0 .83.675 1.505 1.505 1.505h38.654c.83 0 1.505-.675 1.505-1.505v-2.031a2.79 2.79 0 00-.389-1.424zm-16.68-15.985a.645.645 0 00-.82-.439 1.462 1.462 0 01-1.661-.571.645.645 0 00-1.146.16 2.444 2.444 0 01-2.327 1.686c-.12 0-.41-.045-.567-.075a.645.645 0 00-.75.495c-.056.252-.247.366-.704.584-.34.163-.789.378-1.08.789a1.763 1.763 0 01-.477-.924c-.14-.75-.079-1.596-.078-1.603a.645.645 0 00-.17-.488 1.927 1.927 0 01-.514-1.313c0-1.053.823-1.901 1.875-1.932a.645.645 0 00.623-.585 1.154 1.154 0 011.154-1.05c.364 0 .7.168.923.46a.645.645 0 00.938.095 1.545 1.545 0 012.555.987.644.644 0 001.136.34 1.15 1.15 0 011-.416c.549.048 1 .498 1.049 1.047.02.233-.027.463-.138.665a.644.644 0 00.497.952c.284.024.57.165.794.474.178.267.23.598.144.909-.18.651-.408 1.195-.654 1.584-.216-.341-.51-.544-.755-.712-.37-.255-.662-.456-.847-1.119zm7.311 7.49a5.944 5.944 0 004.305-3.7c.876.684 1.382 1.896 1.382 3.385 0 2.313-2.013 4.989-3.326 4.989-1.217 0-3.035-2.278-3.295-4.474l.934-.2zm-12.2 12.166a12.664 12.664 0 00-2.399-6.158l1.156-.476a3.601 3.601 0 004.777 0l1.138.469a12.67 12.67 0 00-2.42 6.165h-2.251zm5.907-5.656l1.9.783a1.93 1.93 0 011.198 1.79v3.083h-5.453a11.365 11.365 0 012.355-5.656zm-4.762-3.575c.57 0 1.102-.103 1.593-.291v1.871a2.313 2.313 0 01-3.184 0v-1.87c.502.191 1.034.29 1.59.29zm-9.149 9.23h-1.124l1.124-1.304v1.305zm.008-3.288l-2.833 3.289H7.112l-2.955-3.956 2.485-1.024a2.991 2.991 0 003.845 0l2.502 1.031a3.226 3.226 0 00-.111.66zm-.373-13.834c1.122 1.136.769 2.86.326 3.939-.422-.42-1.03-.957-1.765-1.428-.462-.295-.835-.688-1.06-1.106.236-.335.426-.698.555-1.081.087-.258.142-.515.165-.765.536-.11 1.278-.066 1.78.441zm-7.35 4.846a6.26 6.26 0 012.516-1.686c.52-.19.999-.459 1.416-.79.323.47.76.892 1.284 1.227a9.673 9.673 0 011.591 1.297c-.497 2.116-2.23 3.878-3.398 3.878-1.169 0-2.927-1.792-3.41-3.926zm3.409 5.215c.372 0 .754-.088 1.132-.249v1.312a1.703 1.703 0 01-2.263 0v-1.314c.378.162.76.25 1.131.25zm-6.107 6.846v-2.031a1.5 1.5 0 01.518-1.137l2.528 3.384h-2.83a.216.216 0 01-.216-.216zm11.702-2.867c0-.788.47-1.49 1.199-1.79l1.884-.776a11.36 11.36 0 012.334 5.649h-5.417v-3.083zm17.01 3.083v-3.083a3.24 3.24 0 00-.124-.88l1.975-.814c.025 1.624.175 3.33 1.079 4.777h-2.93zm3.135-5.739v-.744c.376.18.758.28 1.13.28.374 0 .756-.1 1.133-.28v.747c0 1.935 0 3.93-1.132 5.401-1.13-1.468-1.13-3.466-1.13-5.402v-.002zm7.239 5.523a.216.216 0 01-.216.216h-4.556c.904-1.448 1.055-3.154 1.08-4.777l2.76 1.138c.566.233.932.78.932 1.392v2.031z"/></g><defs><clipPath id="clip0_2_766"><path fill="#fff" d="M0 0h44v44H0z"/></clipPath></defs></svg>