<svg width="44" height="44" fill="none" xmlns="http://www.w3.org/2000/svg"><g clip-path="url(#clip0_2_746)" fill="#fff"><path d="M14.667 25.668c.81 0 1.467.656 1.467 1.466a.733.733 0 101.466 0 2.933 2.933 0 00-2.2-2.829v-.837a.733.733 0 00-1.466 0v.837a2.927 2.927 0 00.733 5.762 1.467 1.467 0 11-1.466 1.467.733.733 0 10-1.467 0 2.934 2.934 0 002.2 2.83v.837a.733.733 0 001.466 0v-.836a2.927 2.927 0 00-.733-5.764 1.467 1.467 0 010-2.933zm2.2-7.334h-4.4a.733.733 0 100 1.467h4.4a.733.733 0 100-1.467zm0 20.533h-4.4a.733.733 0 100 1.467h4.4a.733.733 0 100-1.467z"/><path d="M40.181 28.234L29.416 9.589a12.347 12.347 0 001.747-2.176c1.222-1.98 1.44-3.86.614-5.291-1.645-2.85-6.839-2.826-11.825.052-.662.388-1.299.817-1.906 1.285l-.592-.672a3.722 3.722 0 00-2.787-1.258 3.726 3.726 0 00-2.786 1.258l-8.017 9.085c-.6.679-.93 1.554-.93 2.46V37.4a6.607 6.607 0 006.6 6.6H19.8a6.607 6.607 0 006.6-6.6V14.331a3.706 3.706 0 00-.586-1.992h.005a17.916 17.916 0 002.488-1.735L38.91 28.967a5.133 5.133 0 01-1.878 7.014l-8.89 5.133c-.392.223-.81.394-1.247.507a.733.733 0 00.377 1.418 6.592 6.592 0 001.6-.655l8.89-5.133a6.6 6.6 0 002.418-9.017zM24.934 37.4a5.139 5.139 0 01-5.134 5.133H9.534A5.14 5.14 0 014.4 37.4V14.331c0-.548.2-1.078.563-1.489l8.017-9.083a2.25 2.25 0 013.373 0l7.152 8.105a12.138 12.138 0 01-5.23 1.16c.034-.184.053-.37.058-.557a3.67 3.67 0 00-3.667-3.666.715.715 0 00-.235.047.725.725 0 00-.796.56 4.099 4.099 0 00.359 2.978 3.973 3.973 0 002.139 1.714 2.19 2.19 0 01-3.667-1.633.733.733 0 00-1.466 0 3.662 3.662 0 006.741 1.985c.289.03.579.046.87.047a14.143 14.143 0 005.888-1.482c.28.381.431.841.434 1.315V37.4zm-8.067-24.933a2.197 2.197 0 01-.032.32 2.666 2.666 0 01-1.57-1.135 2.353 2.353 0 01-.279-1.352 2.2 2.2 0 011.881 2.167zm8.218-1.405c-.073.043-.146.08-.22.12l-5.844-6.624a16.621 16.621 0 011.665-1.11c4.13-2.387 8.628-2.656 9.82-.587.545.942.335 2.288-.592 3.788a10.501 10.501 0 01-1.26 1.625l-.008-.013a3.715 3.715 0 00-2.035-1.665l-2.872-.971a.733.733 0 00-.467 1.39l2.872.965c.52.175.957.534 1.232 1.008l.186.324a16.34 16.34 0 01-2.477 1.753v-.003z"/><path d="M27.965 29.56c.203.35.651.47 1.002.268l5.08-2.934a.733.733 0 10-.733-1.27l-5.08 2.933a.733.733 0 00-.269 1.002zm.93 4.54a.733.733 0 001.002.27l6.35-3.667a.733.733 0 10-.733-1.27l-6.35 3.666a.733.733 0 00-.269 1.002zm.413-8.816a.734.734 0 00.367-.099l2.54-1.467a.733.733 0 10-.734-1.27l-2.54 1.467a.733.733 0 00.367 1.369z"/></g><defs><clipPath id="clip0_2_746"><path fill="#fff" d="M0 0h44v44H0z"/></clipPath></defs></svg>