<svg width="16" height="16" fill="none" xmlns="http://www.w3.org/2000/svg"><g clip-path="url(#clip0_183_988)" fill="#fff"><path d="M12.038 3.81l-6.58 4.053a.985.985 0 00-.429 1.104l.712 2.5a.484.484 0 00.505.353.485.485 0 00.45-.422l.184-1.371a.81.81 0 01.25-.483l5.43-5.048a.432.432 0 00-.522-.687zM6.696 9.077a1.449 1.449 0 00-.447.865l-.09.665-.517-1.815a.345.345 0 01.15-.387l4.821-2.969-3.917 3.641z"/><path d="M15.74 1.168a.735.735 0 00-.74-.125L.47 6.647a.73.73 0 00-.471.69c.001.309.19.578.479.687L3.872 9.29l1.324 4.257a.735.735 0 001.167.352l1.973-1.609a.27.27 0 01.33-.009l3.558 2.584a.734.734 0 001.153-.445l2.608-12.541a.736.736 0 00-.245-.711zm-.38.581L12.753 14.29a.095.095 0 01-.06.072.096.096 0 01-.094-.013L9.04 11.765a.906.906 0 00-1.106.031l-1.974 1.61a.095.095 0 01-.09.017.096.096 0 01-.066-.065l-1.37-4.406a.319.319 0 00-.193-.204L.701 7.427a.093.093 0 01-.064-.093c0-.03.011-.072.064-.092l14.528-5.605a.095.095 0 01.099.017.095.095 0 01.032.095z"/><path d="M13.36 7.88a.319.319 0 00-.378.243l-.049.223a.319.319 0 00.623.136l.049-.223a.319.319 0 00-.244-.38zm-.319 1.467a.319.319 0 00-.379.244l-.733 3.377a.319.319 0 10.623.135l.733-3.377a.319.319 0 00-.244-.379z"/></g><defs><clipPath id="clip0_183_988"><path fill="#fff" d="M0 0h16v16H0z"/></clipPath></defs></svg>