<svg width="18" height="18" fill="none" xmlns="http://www.w3.org/2000/svg"><path d="M8.87 8.67a4.195 4.195 0 003.066-1.27 4.195 4.195 0 001.27-3.065c0-1.19-.427-2.222-1.27-3.065A4.196 4.196 0 008.871 0a4.195 4.195 0 00-3.066 1.27 4.195 4.195 0 00-1.27 3.065c0 1.192.428 2.223 1.27 3.066a4.196 4.196 0 003.066 1.27zM6.552 2.017c.647-.647 1.406-.961 2.32-.961.914 0 1.672.314 2.32.96.646.648.96 1.406.96 2.32 0 .914-.314 1.673-.96 2.32-.648.646-1.406.96-2.32.96a3.137 3.137 0 01-2.32-.96c-.647-.647-.961-1.406-.961-2.32 0-.914.314-1.672.961-2.32zm9.906 11.825a10.996 10.996 0 00-.146-1.138 8.952 8.952 0 00-.28-1.143 5.651 5.651 0 00-.47-1.067 4.024 4.024 0 00-.709-.923 3.125 3.125 0 00-1.018-.64 3.52 3.52 0 00-1.3-.236c-.184 0-.362.076-.705.3l-.734.473a4.24 4.24 0 01-.95.418 3.772 3.772 0 01-1.161.188 3.76 3.76 0 01-1.162-.188 4.193 4.193 0 01-.949-.418c-.273-.175-.52-.334-.735-.474-.343-.223-.52-.299-.704-.299-.468 0-.905.08-1.3.236a3.123 3.123 0 00-1.018.64 4.021 4.021 0 00-.709.923 5.659 5.659 0 00-.47 1.067 8.98 8.98 0 00-.28 1.143c-.072.404-.121.787-.145 1.138-.024.344-.036.702-.036 1.063 0 .94.298 1.7.887 2.261.582.554 1.352.835 2.288.835h8.667c.936 0 1.705-.281 2.287-.835.59-.56.888-1.321.888-2.261 0-.363-.012-.72-.036-1.063zm-1.58 2.56c-.383.366-.894.544-1.56.544H4.653c-.666 0-1.176-.178-1.56-.544-.377-.359-.56-.849-.56-1.497 0-.337.01-.67.033-.99.021-.314.066-.658.132-1.024a7.79 7.79 0 01.246-1.008c.094-.295.223-.587.382-.868.152-.267.328-.497.521-.682a2.05 2.05 0 01.677-.421 2.39 2.39 0 01.831-.16c.037.019.103.056.21.126.216.141.466.302.743.479.311.198.712.378 1.192.533.49.158.99.239 1.486.239s.996-.081 1.486-.24c.48-.154.88-.334 1.193-.532.283-.181.526-.338.742-.48a2.88 2.88 0 01.21-.126c.303.008.582.062.83.16.27.107.497.249.678.422.193.185.368.414.52.682.16.281.29.573.383.867a7.9 7.9 0 01.247 1.009c.065.366.11.711.131 1.024.023.319.034.652.034.99 0 .649-.183 1.138-.56 1.497z" fill="#F65826"/></svg>