<svg width="26" height="27" fill="none" xmlns="http://www.w3.org/2000/svg"><path d="M25.048 15.63c.805-6.78-.387-11.061-2.538-12.997l.001-.001C19.039-.675 7.314-1.164 3.161 2.78 1.296 4.71.639 7.541.567 11.047.495 14.553.409 21.122 6.53 22.904h.006l-.006 2.721s-.041 1.103.663 1.325c.806.26 1.17-.251 3.675-3.244 4.19.364 7.407-.469 7.773-.59.846-.284 5.633-.917 6.407-7.486zM11.28 21.79s-2.651 3.307-3.476 4.165c-.27.28-.566.253-.561-.3 0-.363.02-4.518.02-4.518-5.19-1.487-4.884-7.08-4.827-10.007.056-2.927.591-5.325 2.17-6.939C8.253.775 18.532 1.539 21.15 4.001c3.202 2.838 2.062 10.857 2.069 11.13-.659 5.484-4.538 5.831-5.25 6.069-.306.101-3.135.829-6.688.591z" fill="#8145D7"/><path d="M12.75 4.835c-.432 0-.432.675 0 .68 3.361.026 6.128 2.369 6.159 6.665 0 .454.664.448.658-.005h-.001c-.036-4.63-3.058-7.314-6.815-7.34z" fill="#8145D7"/><path d="M17.167 11.467c-.01.447.652.469.658.015.055-2.552-1.519-4.655-4.477-4.876-.433-.032-.478.649-.046.68 2.565.195 3.916 1.945 3.865 4.18zm-.707 2.904c-.556-.322-1.122-.121-1.356.195l-.489.633c-.248.322-.713.28-.713.28-3.39-.897-4.298-4.446-4.298-4.446s-.041-.48.27-.738l.611-.506c.306-.243.5-.828.188-1.403-.832-1.504-1.392-2.023-1.676-2.42-.3-.376-.75-.46-1.217-.207h-.01c-.974.57-2.039 1.635-1.698 2.732.581 1.156 1.65 4.843 5.057 7.628 1.6 1.318 4.134 2.668 5.21 2.98l.01.015c1.06.353 2.09-.754 2.64-1.756v-.008c.244-.485.163-.944-.193-1.244-.633-.617-1.587-1.297-2.336-1.735z" fill="#8145D7"/><path d="M13.813 9.117c1.081.063 1.605.628 1.662 1.787.02.454.678.422.658-.031-.072-1.514-.862-2.358-2.284-2.437-.433-.026-.474.655-.036.68z" fill="#8145D7"/></svg>