<svg width="16" height="16" fill="none" xmlns="http://www.w3.org/2000/svg"><g clip-path="url(#clip0_183_972)" fill="#fff"><path d="M13.6 1.679a.25.25 0 10-.358.35 5.066 5.066 0 011.456 3.567V8a5.1 5.1 0 01-5.095 5.095h-2.94a.25.25 0 00-.177.073L4.51 15.147V12.9a.25.25 0 00-.15-.23A5.097 5.097 0 011.303 8V5.596A5.1 5.1 0 016.396.5h3.207c1.002 0 1.97.29 2.803.84a.25.25 0 10.275-.42A5.573 5.573 0 009.604 0H6.396A5.602 5.602 0 00.801 5.596V8a5.598 5.598 0 003.207 5.061v2.69c0 .217.273.331.428.177l2.331-2.332h2.836A5.602 5.602 0 0015.2 8V5.596a5.565 5.565 0 00-1.6-3.917z"/><path d="M12.017 9.948l-.24-1.302a.25.25 0 00-.197-.2l-1.89-.378a.25.25 0 00-.226.068l-.776.776C7.38 8.328 6.658 7.604 6.02 6.241l.773-.774a.25.25 0 00.069-.226l-.378-1.89a.25.25 0 00-.2-.197l-1.302-.24a.25.25 0 00-.1.001c-.341.078-.652.25-.9.497-.428.428-.592 1.054-.473 1.81.054.343.135.7.24 1.058a.25.25 0 00.48-.14 8.061 8.061 0 01-.225-.997c-.094-.599.018-1.062.333-1.377.168-.169.378-.29.607-.35l1.082.2.318 1.591-.801.802a.25.25 0 00-.052.28C6.22 7.92 7.076 8.774 8.647 9.44a.25.25 0 00.275-.054l.801-.802 1.592.319.2 1.082a1.357 1.357 0 01-.35.607c-.315.315-.779.427-1.378.332-1.198-.188-2.859-.77-3.93-1.836l-.015-.016c-.493-.494-.932-1.176-1.27-1.972a.25.25 0 00-.46.196c.362.854.838 1.59 1.376 2.131l.015.015C6.66 10.595 8.434 11.22 9.71 11.42c.16.025.315.038.462.038.55 0 1.01-.173 1.348-.51.247-.248.419-.559.496-.9a.248.248 0 00.002-.1zM8.536 4.543a.25.25 0 100 .501c.598 0 1.085.487 1.085 1.086 0 .136.114.25.251.25.136 0 .25-.114.25-.25 0-.875-.711-1.587-1.586-1.587z"/><path d="M8.533 3.475a2.62 2.62 0 00-.294.016.25.25 0 00.055.498 2.157 2.157 0 012.381 2.381.25.25 0 00.498.055 2.659 2.659 0 00-2.64-2.95z"/><path d="M8.533 2.405c-.095 0-.19.004-.286.011a.25.25 0 10.038.5 3.227 3.227 0 013.386 3.959.253.253 0 00.181.3.253.253 0 00.307-.185 3.73 3.73 0 00-3.625-4.584z"/></g><defs><clipPath id="clip0_183_972"><path fill="#fff" d="M0 0h16v16H0z"/></clipPath></defs></svg>