<svg width="81" height="81" fill="none" xmlns="http://www.w3.org/2000/svg"><path d="M57.956 36.298l-11.828-6.852-11.746-6.77c-1.142-.653-2.447-.816-3.59-.49-1.141.327-2.202 1.061-2.854 2.203-.245.326-.327.734-.49 1.142-.081.245-.081.571-.163.897V54.49c0 1.305.571 2.528 1.387 3.344a4.62 4.62 0 003.344 1.387c.734 0 2.284-.653 2.692-.898l11.583-6.688h.082l.081-.082 11.991-6.933c1.142-.653 1.876-1.713 2.203-2.937.081-.245.081-.571.081-.897 0-2.692-2.773-4.487-2.773-4.487zm-1.632 4.813l-11.827 6.852c-.082 0-.163.082-.163.082L32.75 54.733c-.081.082-.489.245-.652.245-.163 0-.326-.081-.49-.163-.081-.082-.163-.326-.163-.49V26.51s0-.082.082-.082c0 0 .081-.081.081-.163.082-.081.245-.163.327-.245h.408c.081.082.163.082.244.164l11.583 6.688a.253.253 0 00.163.082h.082l11.828 6.852c.163.082.49.326.49.57 0 .327-.245.654-.409.735z" fill="#fff"/><path d="M69.13 11.91C61.299 3.996 50.94 0 40.58 0S19.86 3.915 11.948 11.828C4.036 19.822.04 30.18.04 40.54s3.914 20.72 11.827 28.632C19.779 77.085 30.139 81 40.498 81c10.36 0 20.72-3.915 28.632-11.828C77.042 61.26 80.958 50.9 80.958 40.541c0-10.36-3.916-20.72-11.828-28.632zm-2.855 54.326C59.178 73.332 49.879 76.92 40.58 76.92c-9.3 0-18.598-3.589-25.695-10.685C7.707 59.139 4.199 49.84 4.199 40.54s3.59-18.598 10.686-25.695C21.982 7.749 31.281 4.16 40.58 4.16s18.598 3.59 25.695 10.686C73.37 21.943 76.96 31.242 76.96 40.54s-3.507 18.598-10.685 25.695z" fill="#fff"/></svg>