<svg width="82" height="82" fill="none" xmlns="http://www.w3.org/2000/svg"><g clip-path="url(#clip0_5_3919)"><path d="M37.582 78.53C16.861 78.53 0 61.668 0 40.947S16.86 3.365 37.582 3.365a37.458 37.458 0 0120.274 5.941 2.564 2.564 0 11-2.77 4.315 32.315 32.315 0 00-17.504-5.13c-17.896 0-32.457 14.56-32.457 32.457 0 17.895 14.561 32.456 32.457 32.456S70.04 58.844 70.04 40.948c0-1.07-.051-2.13-.15-3.17a2.562 2.562 0 115.101-.496 38.39 38.39 0 01.174 3.666c0 20.721-16.86 37.581-37.582 37.581z" fill="url(#paint0_linear_5_3919)"/><path d="M41.852 49.49a2.54 2.54 0 01-1.81-.752L24.666 33.363a2.564 2.564 0 013.624-3.625l13.564 13.564 35.77-35.768a2.564 2.564 0 013.625 3.625L43.666 48.74a2.567 2.567 0 01-1.814.748z" fill="url(#paint1_linear_5_3919)"/></g><defs><linearGradient id="paint0_linear_5_3919" x1="-48.544" y1="-51.442" x2="117.923" y2="-28.517" gradientUnits="userSpaceOnUse"><stop stop-color="#4999D2"/><stop offset="1" stop-color="#9F46E6"/></linearGradient><linearGradient id="paint1_linear_5_3919" x1="-13.596" y1="-24.357" x2="113.038" y2="-.638" gradientUnits="userSpaceOnUse"><stop stop-color="#4999D2"/><stop offset="1" stop-color="#9F46E6"/></linearGradient><clipPath id="clip0_5_3919"><path fill="#fff" d="M0 0h82v82H0z"/></clipPath></defs></svg>