<svg width="69" height="21" fill="none" xmlns="http://www.w3.org/2000/svg"><path d="M9.861 20.105c-2.918 0-5.159-.787-6.723-2.36C1.582 16.17.804 13.768.804 10.533c0-3.243.813-5.642 2.44-7.198C4.877 1.771 7.325.988 10.585.988h2.94c1.943 0 3.692.466 5.247 1.398 1.565.923 2.347 2.078 2.347 3.467 0 .519-.154.892-.461 1.12-.308.22-.607.33-.897.33h-1.569c-.756 0-1.358-.43-1.806-1.292-.448-.861-1.556-1.292-3.322-1.292h-2.347c-1.925 0-3.23.413-3.915 1.24-.686.826-1.029 2.346-1.029 4.561s.308 3.749.923 4.601c.615.844 1.714 1.266 3.296 1.266h2.703c1.415 0 2.426-.268 3.032-.805.606-.544.918-1.322.936-2.333h-2.98a1.23 1.23 0 01-.883-.356 1.228 1.228 0 01-.356-.883v-1.03c0-.342.119-.632.356-.87.246-.246.54-.369.884-.369h6.618c.342 0 .633.123.87.37.246.237.369.527.369.87v1.463c0 2.46-.738 4.355-2.215 5.682-1.476 1.318-3.643 1.978-6.5 1.978H9.862zm35.634-.673c0 .378-.224.567-.672.567h-3.164c-.334 0-.703-.119-1.108-.356a2.74 2.74 0 01-.91-.883l-2.24-3.507c-.924-1.441-2.04-2.162-3.35-2.162h-3.216v5.669c0 .342-.123.637-.37.883a1.183 1.183 0 01-.87.356h-2.478c-.343 0-.637-.119-.883-.356a1.205 1.205 0 01-.37-.883V2.346c0-.343.12-.637.357-.883s.527-.37.87-.37h10.876c2.013 0 3.66.541 4.944 1.622 1.292 1.081 1.938 2.54 1.938 4.377 0 2.558-1.657 4.162-4.97 4.812.527.194 1.015.528 1.463 1.002.448.466.963 1.147 1.543 2.044l2.4 3.81c.14.246.21.47.21.672zM30.835 9.36h5.616c.905 0 1.7-.18 2.386-.54.695-.361 1.042-.937 1.042-1.728 0-.79-.347-1.366-1.042-1.727-.685-.36-1.48-.54-2.386-.54h-5.616V9.36zm19.84 8.411c-1.626-1.556-2.44-3.96-2.44-7.211 0-3.261.814-5.67 2.44-7.225C52.309 1.771 54.757.988 58.018.988h2.94c1.995 0 3.757.519 5.286 1.556C67.782 3.581 68.552 5 68.552 6.802c0 .519-.154.892-.462 1.12-.308.22-.606.33-.896.33h-1.57c-.808 0-1.436-.483-1.884-1.45-.65-1.388-1.732-2.083-3.244-2.083H58.15c-1.925 0-3.23.413-3.916 1.24-.685.826-1.028 2.355-1.028 4.587 0 2.233.343 3.767 1.028 4.602.686.826 1.99 1.239 3.916 1.239h2.623c1.512 0 2.589-.695 3.23-2.083.448-.976 1.081-1.464 1.899-1.464h1.569c.413 0 .738.154.975.462.246.307.37.641.37 1.002 0 1.801-.765 3.22-2.295 4.258-1.529 1.028-3.291 1.543-5.286 1.543h-3.217c-3.26 0-5.709-.778-7.343-2.334z" fill="#8145D7"/></svg>