<svg width="128" height="128" fill="none" xmlns="http://www.w3.org/2000/svg"><path d="M64 0l5.597 5.387 6.515-4.23 4.476 6.348 7.198-2.92 3.194 7.08 7.621-1.505 1.796 7.557 7.768-.036.334 7.76 7.634 1.435-1.141 7.684 7.224 2.853-2.574 7.33 6.554 4.168-3.915 6.71 5.647 5.334-5.115 5.847 4.536 6.306-6.129 4.773 3.26 7.051-6.921 3.528 1.867 7.54-7.464 2.154.406 7.757-7.736.702-1.07 7.694-7.73-.774-2.505 7.352-7.444-2.223-3.852 6.746-6.888-3.592-5.06 5.894L64 122.88l-6.084 4.83-5.06-5.894-6.887 3.592-3.852-6.746-7.444 2.223-2.506-7.352-7.73.774-1.069-7.694-7.736-.702.406-7.757L8.574 96l1.867-7.54-6.921-3.528 3.26-7.05-6.13-4.774 4.536-6.306-5.115-5.847L5.72 55.62l-3.915-6.71 6.554-4.169-2.574-7.329 7.224-2.853-1.14-7.684 7.633-1.434.334-7.761 7.768.036 1.796-7.557 7.62 1.505 3.195-7.08 7.198 2.92 4.476-6.348 6.515 4.23L64 0z" fill="#8145D7"/></svg>